<?xml version="1.0" encoding="UTF-8" standalone="no"?>
<svg
   xmlns:dc="http://purl.org/dc/elements/1.1/"
   xmlns:cc="http://creativecommons.org/ns#"
   xmlns:rdf="http://www.w3.org/1999/02/22-rdf-syntax-ns#"
   xmlns:svg="http://www.w3.org/2000/svg"
   xmlns="http://www.w3.org/2000/svg"
   id="svg4136"
   version="1.1"
   width="80"
   height="80"
   viewBox="0 0 80 80">
  <metadata
     id="metadata4142">
    <rdf:RDF>
      <cc:Work
         rdf:about="">
        <dc:format>image/svg+xml</dc:format>
        <dc:type
           rdf:resource="http://purl.org/dc/dcmitype/StillImage" />
        <dc:title></dc:title>
      </cc:Work>
    </rdf:RDF>
  </metadata>
  <defs
     id="defs4140" />
  <path
     style="opacity:1;fill:#ffffff;fill-opacity:1;fill-rule:nonzero;stroke:none;stroke-width:4.6062994;stroke-linecap:round;stroke-linejoin:miter;stroke-miterlimit:4;stroke-dasharray:none;stroke-dashoffset:0;stroke-opacity:1"
     d="M 2 2 L 2 38 L 38 38 L 38 2 L 2 2 z M 18 10 L 22 10 L 22 18 L 30 18 L 30 22 L 22 22 L 22 30 L 18 30 L 18 22 L 10 22 L 10 18 L 18 18 L 18 10 z "
     id="rect4148" />
  <path
     id="rect4152"
     d="m 2,42 0,36 36,0 0,-36 z m 11,8 7,7 7,-7 3,3 -7,7 7,7 -3,3 -7,-7 -7,7 -3,-3 7,-7 -7,-7 z"
     style="opacity:1;fill:#ffffff;fill-opacity:1;fill-rule:nonzero;stroke:none;stroke-width:4.6062994;stroke-linecap:round;stroke-linejoin:miter;stroke-miterlimit:4;stroke-dasharray:none;stroke-dashoffset:0;stroke-opacity:1" />
  <path
     style="opacity:1;fill:#ffffff;fill-opacity:1;fill-rule:nonzero;stroke:none;stroke-width:4.6062994;stroke-linecap:round;stroke-linejoin:miter;stroke-miterlimit:4;stroke-dasharray:none;stroke-dashoffset:0;stroke-opacity:1"
     d="M 42 42 L 42 78 L 78 78 L 78 42 L 42 42 z M 58 48.5 L 62 48.5 L 62 53.5 L 68 53.5 L 68 56.5 L 55 56.5 L 55 58.5 L 68 58.5 L 68 61.5 L 68 63.5 L 68 66.5 L 62 66.5 L 62 71.5 L 58 71.5 L 58 66.5 L 52 66.5 L 52 63.5 L 65 63.5 L 65 61.5 L 52 61.5 L 52 58.5 L 52 56.5 L 52 53.5 L 58 53.5 L 58 48.5 z "
     id="rect4148-8" />
  <path
     style="opacity:1;fill:#ffffff;fill-opacity:1;fill-rule:nonzero;stroke:none;stroke-width:4.6062994;stroke-linecap:round;stroke-linejoin:miter;stroke-miterlimit:4;stroke-dasharray:none;stroke-dashoffset:0;stroke-opacity:1"
     d="M 42 2 L 42 38 L 78 38 L 78 2 L 42 2 z M 50 18 L 70 18 L 70 22 L 50 22 L 50 18 z "
     id="rect4148-80" />
</svg>
