<?xml version="1.0" encoding="UTF-8" standalone="no"?>
<svg
   xmlns:dc="http://purl.org/dc/elements/1.1/"
   xmlns:cc="http://creativecommons.org/ns#"
   xmlns:rdf="http://www.w3.org/1999/02/22-rdf-syntax-ns#"
   xmlns:svg="http://www.w3.org/2000/svg"
   xmlns="http://www.w3.org/2000/svg"
   viewBox="0 0 80 80"
   height="80"
   width="80"
   version="1.1"
   id="svg4312">
  <metadata
     id="metadata4318">
    <rdf:RDF>
      <cc:Work
         rdf:about="">
        <dc:format>image/svg+xml</dc:format>
        <dc:type
           rdf:resource="http://purl.org/dc/dcmitype/StillImage" />
        <dc:title></dc:title>
      </cc:Work>
    </rdf:RDF>
  </metadata>
  <defs
     id="defs4316" />
  <path
     id="path4324"
     d="M 32 0 A 31 31 0 0 0 1 31 A 31 31 0 0 0 32 62 A 31 31 0 0 0 43.689453 59.689453 L 48 64 L 50 62 L 68 80 L 80 68 L 62 50 L 64 48 L 60.070312 44.070312 A 31 31 0 0 0 63 31 A 31 31 0 0 0 32 0 z M 32 10 A 21 21 0 0 1 53 31 A 21 21 0 0 1 32 52 A 21 21 0 0 1 11 31 A 21 21 0 0 1 32 10 z "
     style="opacity:1;fill:#ffffff;fill-opacity:1;fill-rule:nonzero;stroke:none;stroke-width:4.6062994;stroke-linecap:round;stroke-linejoin:miter;stroke-miterlimit:4;stroke-dasharray:none;stroke-dashoffset:0;stroke-opacity:1" />
</svg>
