<?xml version="1.0" encoding="UTF-8" standalone="no"?>
<svg
   xmlns:dc="http://purl.org/dc/elements/1.1/"
   xmlns:cc="http://creativecommons.org/ns#"
   xmlns:rdf="http://www.w3.org/1999/02/22-rdf-syntax-ns#"
   xmlns:svg="http://www.w3.org/2000/svg"
   xmlns="http://www.w3.org/2000/svg"
   id="svg4344"
   version="1.1"
   width="80"
   height="80"
   viewBox="0 0 80 80">
  <metadata
     id="metadata4350">
    <rdf:RDF>
      <cc:Work
         rdf:about="">
        <dc:format>image/svg+xml</dc:format>
        <dc:type
           rdf:resource="http://purl.org/dc/dcmitype/StillImage" />
        <dc:title></dc:title>
      </cc:Work>
    </rdf:RDF>
  </metadata>
  <defs
     id="defs4348" />
  <path
     id="path4400"
     d="M 35.085938 0 L 33.103516 11.890625 A 29.017711 29.017711 0 0 0 25.183594 15.164062 L 15.316406 8.1171875 L 8.2421875 15.191406 L 15.279297 25.044922 A 29.017711 29.017711 0 0 0 11.994141 32.908203 L 0 34.908203 L 0 44.914062 L 11.929688 46.902344 A 29.017711 29.017711 0 0 0 15.164062 54.816406 L 8.1171875 64.683594 L 15.191406 71.759766 L 24.988281 64.761719 A 29.017711 29.017711 0 0 0 32.925781 68.105469 L 34.908203 80 L 44.914062 80 L 46.880859 68.203125 A 29.017711 29.017711 0 0 0 54.933594 64.919922 L 64.683594 71.884766 L 71.759766 64.808594 L 64.832031 55.113281 A 29.017711 29.017711 0 0 0 68.203125 47.058594 L 80 45.091797 L 80 35.085938 L 68.242188 33.125 A 29.017711 29.017711 0 0 0 64.919922 25.068359 L 71.884766 15.316406 L 64.808594 8.2421875 L 55.056641 15.207031 A 29.017711 29.017711 0 0 0 47.076172 11.896484 L 45.091797 0 L 35.085938 0 z M 40 22 A 18 18 0 0 1 58 40 A 18 18 0 0 1 40 58 A 18 18 0 0 1 22 40 A 18 18 0 0 1 40 22 z "
     style="opacity:1;fill:#ffffff;fill-opacity:1;fill-rule:nonzero;stroke:none;stroke-width:4.6062994;stroke-linecap:round;stroke-linejoin:miter;stroke-miterlimit:4;stroke-dasharray:none;stroke-dashoffset:0;stroke-opacity:1" />
  <circle
     r="9"
     cy="40"
     cx="40"
     id="path4431"
     style="opacity:1;fill:#ffffff;fill-opacity:1;fill-rule:nonzero;stroke:none;stroke-width:4.6062994;stroke-linecap:round;stroke-linejoin:miter;stroke-miterlimit:4;stroke-dasharray:none;stroke-dashoffset:0;stroke-opacity:1" />
</svg>
