<?xml version="1.0" encoding="UTF-8" standalone="no"?>
<svg
   xmlns:dc="http://purl.org/dc/elements/1.1/"
   xmlns:cc="http://creativecommons.org/ns#"
   xmlns:rdf="http://www.w3.org/1999/02/22-rdf-syntax-ns#"
   xmlns:svg="http://www.w3.org/2000/svg"
   xmlns="http://www.w3.org/2000/svg"
   style="overflow:visible"
   height="82"
   width="82"
   version="1.1"
   id="svg4146"
   overflow="visible">
  <metadata
     id="metadata4156">
    <rdf:RDF>
      <cc:Work
         rdf:about="">
        <dc:format>image/svg+xml</dc:format>
        <dc:type
           rdf:resource="http://purl.org/dc/dcmitype/StillImage" />
        <dc:title></dc:title>
      </cc:Work>
    </rdf:RDF>
  </metadata>
  <defs
     id="defs4154">
    <linearGradient id="Foreground">
      <stop Style="stop-color:#000000;stop-opacity:1" id="ForegroundStop" />
    </linearGradient>
  </defs>
  <path
     d="M 5.625779,65.463612 C 3.580042,68.020787 2.045738,70.407477 0.852391,72.623696 0.511435,73.13513 0,74.669432 0,75.692302 l 0,1.534302 C 0,79.78378 2.045738,82 4.773389,82 l 72.453222,0 C 79.783785,82 82,79.954258 82,77.226604 L 82,21.309769 C 42.27859,28.299375 18.070687,49.950101 5.625779,65.463612 Z M 77.226611,0 4.773389,0 C 2.216216,0 0,2.045737 0,4.773385 L 0,48.24532 C 14.320166,33.243241 39.891893,16.706858 78.760913,12.274426 c 1.022868,-0.170492 3.068609,-0.511434 3.068609,-3.409564 l 0,-3.920999 C 82.000014,2.045737 79.783785,0 77.226611,0 Z"
     id="path4150"
     style="fill:url(#Foreground);fill-opacity:1" />
</svg>
