<?xml version="1.0" encoding="utf-8"?>
<!-- Generator: Adobe Illustrator 21.0.2, SVG Export Plug-In . SVG Version: 6.00 Build 0)  -->
<!DOCTYPE svg PUBLIC "-//W3C//DTD SVG 1.1//EN" "http://www.w3.org/Graphics/SVG/1.1/DTD/svg11.dtd">
<svg version="1.1" id="Layer_1" xmlns="http://www.w3.org/2000/svg" xmlns:xlink="http://www.w3.org/1999/xlink" x="0px" y="0px"
	 viewBox="0 0 32 32" style="enable-background:new 0 0 32 32;" xml:space="preserve">
<style type="text/css">
	.White{fill:#FFFFFF;}
	.Black{fill:#727272;}
	.Blue{fill:#1177D7;}
	.st0{opacity:0.35;}
</style>
<defs>
  <linearGradient id="Foreground">
      <stop Style="stop-color:#1177D7;stop-opacity:1" id="ForegroundStop" />
    </linearGradient>
</defs>    
<g id="Preview">
	<path style="fill:url(#Foreground);fill-opacity:1" d="M18,13c0-3.3,2.7-6,6-6V1H2v26h22v-8C20.7,19,18,16.3,18,13z"/>
	<path class="White" d="M18,13c0-2.6,1.7-4.8,4-5.7V3H4v22h18v-6.3C19.7,17.8,18,15.6,18,13z"/>
	<path style="fill:url(#Foreground);fill-opacity:1" d="M20,19L8,31l-2-2l12-12C18,17,20.2,19,20,19z"/>
	<path style="fill:url(#Foreground);fill-opacity:1" d="M24,5c-4.4,0-8,3.6-8,8s3.6,8,8,8s8-3.6,8-8S28.4,5,24,5z M24,19c-3.3,0-6-2.7-6-6s2.7-6,6-6s6,2.7,6,6
		S27.3,19,24,19z"/>
	<g class="st0">
		<path style="fill:url(#Foreground);fill-opacity:1" d="M26,7.3C25.4,7.1,24.7,7,24,7c-3.3,0-6,2.7-6,6s2.7,6,6,6c0.7,0,1.4-0.1,2-0.3V7.3z"/>
		<path class="White" d="M18,13c0,3.3,2.7,6,6,6V7C20.7,7,18,9.7,18,13z"/>
	</g>
</g>
</svg>
